<svg xmlns="http://www.w3.org/2000/svg" data-name="Layer 1" width="844.67" height="331.552">
  <path d="M133.288 200.8a3.613 3.613 0 0 1-2.618-6.262l.247-.985a9.707 9.707 0 0 0-17.997-.17c-4.282 10.024-9.824 20.4-7.068 31.44-18.206-38.585-12.015-86.581 14.891-119.579 7.438-4.097 13.465-11.376 15.035-19.827-3.68 1.247-8.27-1.747-5.503-5.624 1.2-1.482 2.411-2.952 3.61-4.434-13.981-14.89-30.64 8.512-15.25 28.61a115.847 115.847 0 0 0-13.012 20.351 48.71 48.71 0 0 0-2.908-22.624c-2.783-6.715-8-12.37-12.595-18.175-5.586-7.073-17.083-3.81-17.834 5.166 5.155 1.694 5.825 9.141-.072 10.16 1.544 16.698 12.453 32.044 27.478 39.367a116.299 116.299 0 0 0-6.355 48.611c-2.652-19.25-23.316-23.921-37.759-31.572a5.626 5.626 0 0 0-8.58 5.698 32.495 32.495 0 0 1 5.696 3.005 4.911 4.911 0 0 1-2.282 8.965c7.28 18.018 26.102 30.118 45.434 30.05a119.563 119.563 0 0 0 8.032 23.447h28.691c.103-.32.196-.648.288-.967a32.598 32.598 0 0 1-7.939-.473c7.026-8.32 12.46-12.564 8.371-24.177ZM723.389 200.8a3.613 3.613 0 0 0 2.618-6.262l-.247-.985a9.707 9.707 0 0 1 17.997-.17c4.282 10.024 9.824 20.4 7.068 31.44 18.206-38.585 12.014-86.581-14.892-119.579-7.437-4.097-13.465-11.376-15.034-19.827 3.68 1.247 8.27-1.747 5.502-5.624-1.2-1.482-2.41-2.952-3.61-4.434 13.982-14.89 30.64 8.512 15.251 28.61a115.847 115.847 0 0 1 13.011 20.351 48.71 48.71 0 0 1 2.908-22.624c2.784-6.715 8.001-12.37 12.595-18.175 5.586-7.073 17.083-3.81 17.835 5.166-5.155 1.694-5.825 9.141.072 10.16-1.544 16.698-12.453 32.044-27.478 39.367a116.299 116.299 0 0 1 6.355 48.611c2.652-19.25 23.316-23.921 37.759-31.572a5.626 5.626 0 0 1 8.58 5.698 32.495 32.495 0 0 0-5.696 3.005 4.911 4.911 0 0 0 2.282 8.965c-7.28 18.018-26.103 30.118-45.434 30.05a119.562 119.562 0 0 1-8.032 23.447h-28.691c-.103-.32-.196-.648-.288-.967a32.598 32.598 0 0 0 7.939-.473c-7.027-8.32-12.46-12.564-8.371-24.177Z" fill="#f2f2f2" />
  <path d="M0 227.163a1.186 1.186 0 0 0 1.19 1.19h842.29a1.19 1.19 0 0 0 0-2.38H1.19a1.187 1.187 0 0 0-1.19 1.19Z" fill="#ccc" />
  <path d="M148.505 210.641c-.4-5.847-.401-11.429-.516-15.733-.233-8.766 18.673-8.141 28.84-8.411l36.912-1.75c10.166-.27 18.627 6.641 18.86 15.408s-7.848 16.118-18.014 16.389c-14.932 12.96-26.515 13.591-46.998 12.725a19.98 19.98 0 0 1-19.084-18.628Z" fill="#2f2e41" />
  <path fill="#ffb6b6" d="m233.382 311.33 10.576 1.728 11.698-39.971-15.609-2.55-6.665 40.793z" />
  <path d="M237.585 227.983c-19.72 4.848-34.28-.612-46.272.096-6.817-11.503-28.578-26.114-16.705-32.264 6.612-3.425 73.829-11.32 82.653-2.208 12.424 12.83 10.688 36.168 6.575 54.659q-.165.74-.335 1.47-.312 1.346-.639 2.652c-.273 1.097-2.166 1.079-2.448 2.126-.399 1.478.81 3.994.408 5.354-.688 2.33-2.771 4.522-2.007 6.378 2.11 5.118-2.246 9.098-3.401 9.268l-16-4c-1.13-.266-3.781-3.074.457-5.539 1.2-.698.187-2.983.265-4.735.048-1.077.09-2.213.123-3.393.045-1.57.072-3.218.075-4.915.016-8.374-.568-17.934-2.75-24.95ZM234.308 296.48l15.683 3.212-1.77 6.613 11.96 14.065a4.277 4.277 0 0 1-4.363 6.902l-18.377-4.921-1.416-7.39-2.988 6.21-6.93-1.855Z" fill="#2f2e41" />
  <path fill="#ffb6b6" d="m116.249 241.73.915 10.677 41.619 1.552-1.351-15.759-41.183 3.53z" />
  <path d="M217.498 220.488c-18.19-6.662-24.99-22.898-30.837-39.936 9.483-9.427 22.538-23.56 31.408-13.556 4.94 5.572 44.25 53.362 37.577 64.149-10.268 16.596-43.775 21.699-69.035 23.12q-2.317.13-4.534.221-2.036.084-3.97.14c-5.218.151-10.717-2.269-13.419.116-4.868 4.297-8.114 2.225-8.274-.228l-1-17c-.729-2.735 6.937-5.027 10-2 2.2 2.175 1.261-.297 7.036-1.613 13.961-3.181 33.272-8.12 45.048-13.413ZM130.874 238.99l.727 15.992-6.846-.097-10.706 15.042a4.277 4.277 0 0 1-7.76-2.54l.269-19.023 6.818-3.183-6.753-1.376.101-7.172Z" fill="#2f2e41" />
  <path d="M155.026 199.486a.501.501 0 0 1 .016-.518c-6.142-.228-12.24 1.178-10.628-4.454.23-.804 5.758-6.688 6.08-7.57.28-.765-1.418-4.612-1.08-5.43.661-1.603 3.432-.25 4.254-2.025.289-.624-1.557-2.332-1.254-2.975.284-.604 2.715-.142 3.008-.76 5.503-11.625 12.251-25.651 10.477-37.237-2.25-14.682-1.907-35.517-2.342-48.693a11.758 11.758 0 0 1 8.506-11.68c4.012-1.167 8.823-3.223 12.016-6.782.836-.932.937.738 1.043-1.532.13-2.766.265-5.626 1.741-7.102l.064-.064.086-.029c6.216-2.07 16.711-.731 19.832-.01l.135.032.084.11c1.29 1.703 1.219 4.426 1.15 7.06-.062 2.37-.12.793.93 1.468q1.219.784 2.343 1.5c9.237 5.891 13.874 8.85 17.272 18.475a19.191 19.191 0 0 1 1.18 8.787c-1.213 9.632-6.36 80.232-8.42 82.693-.536.639.854 1.749 1.43 2.577.825 1.19-1.798 2.216-2.21 3.002-.28.535-1.003.785-2.276.785-4.799 0-62.04 12.983-63.437 10.372Zm.659-.099Z" fill="#3f3d56" />
  <path d="M195.085 159.966c1.788 1.123-1.712 3.823-3.823 3.823a3.823 3.823 0 0 1-3.823-3.823c0-2.111 2.369-7.128 3.345-5.256.267.51 1.968 3.791 4.301 5.256Z" fill="#a855f7" />
  <path d="M201.297 159.966c1.788 1.123-1.712 3.823-3.823 3.823a3.823 3.823 0 0 1-3.823-3.823c0-2.111 2.369-7.128 3.345-5.256.267.51 1.968 3.791 4.301 5.256Z" fill="#a855f7" />
  <path d="M198.328 159.108c-2.022-.605.631-4.14 2.666-4.703a3.823 3.823 0 0 1 4.704 2.666c.562 2.035-.385 7.502-1.824 5.958-.393-.422-2.907-3.13-5.546-3.92ZM222.323 159.966c1.788 1.123-1.712 3.823-3.823 3.823a3.823 3.823 0 0 1-3.823-3.823c0-2.111 2.369-7.128 3.345-5.256.267.51 1.967 3.791 4.3 5.256Z" fill="#a855f7" />
  <path d="M228.535 159.966c1.788 1.123-1.712 3.823-3.823 3.823a3.823 3.823 0 0 1-3.823-3.823c0-2.111 2.369-7.128 3.345-5.256.267.51 1.967 3.791 4.3 5.256Z" fill="#a855f7" />
  <path d="M225.566 159.108c-2.023-.605.631-4.14 2.666-4.703a3.823 3.823 0 0 1 4.703 2.666c.563 2.035-.384 7.502-1.824 5.958-.393-.422-2.906-3.13-5.545-3.92ZM181.603 159.108c-2.022-.605.632-4.14 2.667-4.703a3.823 3.823 0 0 1 4.703 2.666c.562 2.035-.384 7.502-1.824 5.958-.393-.422-2.907-3.13-5.546-3.92ZM208.789 163.194c-.855 1.93-4.029-1.147-4.331-3.236a3.823 3.823 0 0 1 3.236-4.331c2.09-.303 7.394 1.323 5.681 2.558-.468.337-3.47 2.49-4.586 5.009ZM216.118 156.792c.509-2.05 4.166.434 4.824 2.44a3.823 3.823 0 0 1-2.44 4.824c-2.007.659-7.512-.028-6.038-1.54.403-.412 2.99-3.05 3.654-5.724Z" fill="#a855f7" />
  <path d="M213.25 153.925c.51-2.05 4.167.434 4.825 2.44a3.823 3.823 0 0 1-2.44 4.824c-2.007.659-7.512-.028-6.038-1.54.403-.412 2.99-3.05 3.654-5.724Z" fill="#a855f7" />
  <path d="m176.892 173.09 4.49 14.642a11.045 11.045 0 0 0 10.859 9.029h31.774a11.005 11.005 0 0 0 10.896-9.246l.01-.048 3.979-14.577a10.313 10.313 0 0 0-10.18-11.968h-41.683a10.313 10.313 0 0 0-10.145 12.168Z" fill="#ccc" />
  <path d="m205.086 146.251 27.55-6.986 4.282 14.175s-29.64 2.195-30.747 2.205a7.09 7.09 0 1 1-1.085-9.394Z" fill="#ffb6b6" />
  <path d="M223.47 81.971c19.644 10.497 22.252 33.897 34.303 54.46 1.054 9.51-.296 17.867-9.862 18.036l-4.497 1.047-3.272-.868-1.728 1.868-3.661-1.744-4.228.81-8.766.201 5.53-15.318 7.886-4.48-9.32-22.549Z" fill="#3f3d56" />
  <path d="M163.44 43.616c3.205-4.169.936-10.132.832-15.415-.193-9.859 8.515-18.535 17.972-19.818 9.456-1.283 18.884 3.67 25.115 11.017 6.108 7.202 10.691 10.977 13.998 19.96 1.109 3.013 1.077 11.588.692 14.813-.384 3.225-2.824 6.472-5.953 6.497a3.532 3.532 0 0 1-4.675 4.171c-5.445-2.374-16.576-1.693-16.576-1.693l-29.614-4.874c-2.53-.416-5.15-.867-7.085-2.749a5.108 5.108 0 0 1-1.622-3.95c.257-3.82 4.707-5.086 6.916-7.96Z" fill="#2f2e41" />
  <circle cx="195.994" cy="42.514" r="19.537" fill="#ffb6b6" />
  <path d="m207.791 38.873-25.56-6.19a4.343 4.343 0 0 1-3.25-5.114 18.852 18.852 0 0 1 22.51-14.34l7.57 1.694a19.003 19.003 0 0 1 14.39 22.697l-.159.065a25.001 25.001 0 0 1-15.067 1.289 25.14 25.14 0 0 1-.434-.101Z" fill="#2f2e41" />
  <path d="m182.515 57.971-4.757-9.712a4.884 4.884 0 0 1-.73-2.952c.191-1.014 1.381-1.88 2.267-1.35.822.492 8.808-11.18 9.742-10.967.968.22 1.574-1.001 1.803-1.967.869-3.661-2.998-.387-3.193-4.145s-4.72-1.578-7.681-3.9-7.625-2.612-10.356-.024c-2.025 1.918-2.626 4.866-3.032 7.626a127.262 127.262 0 0 0-1.355 19.344c.01 1.59.15 3.396 1.391 4.391a5.518 5.518 0 0 0 2.335.902l10.174 2.226" fill="#2f2e41" />
  <circle cx="176.711" cy="9.63" r="9.628" fill="#2f2e41" />
  <path d="M332.952 138.443v85.704a4.122 4.122 0 0 0 4.119 4.119h127.004a4.122 4.122 0 0 0 4.12-4.12v-85.703a4.124 4.124 0 0 0-4.12-4.115H337.071a4.124 4.124 0 0 0-4.12 4.115Z" fill="#3f3d56" />
  <path d="M335.931 139.509v83.58a2.205 2.205 0 0 0 2.201 2.202h124.886a2.205 2.205 0 0 0 2.201-2.202v-83.58a2.206 2.206 0 0 0-2.201-2.206H338.132a2.206 2.206 0 0 0-2.201 2.206Z" fill="#a855f7" />
  <path d="M330.295 240.861a2.47 2.47 0 0 0 1.944.93H468.23a2.502 2.502 0 0 0 2.446-3.016l-2.111-10.027a2.507 2.507 0 0 0-1.558-1.818 2.425 2.425 0 0 0-.888-.167H334.342a2.425 2.425 0 0 0-.888.167 2.507 2.507 0 0 0-1.559 1.818l-2.11 10.027a2.5 2.5 0 0 0 .51 2.086Z" fill="#2f2e41" />
  <rect x="638.63" y="512.793" width="4.188" height="2.513" rx=".488" transform="rotate(-180 551.892 371.937)" fill="#3f3d56" />
  <rect x="630.253" y="512.793" width="4.188" height="2.513" rx=".488" transform="rotate(-180 543.515 371.937)" fill="#3f3d56" />
  <rect x="621.876" y="512.793" width="4.188" height="2.513" rx=".488" transform="rotate(-180 535.138 371.937)" fill="#3f3d56" />
  <rect x="613.499" y="512.793" width="4.188" height="2.513" rx=".488" transform="rotate(-180 526.761 371.937)" fill="#3f3d56" />
  <rect x="605.123" y="512.793" width="4.188" height="2.513" rx=".488" transform="rotate(-180 518.384 371.937)" fill="#3f3d56" />
  <rect x="596.746" y="512.793" width="4.188" height="2.513" rx=".488" transform="rotate(-180 510.007 371.937)" fill="#3f3d56" />
  <rect x="588.369" y="512.793" width="4.188" height="2.513" rx=".488" transform="rotate(-180 501.63 371.937)" fill="#3f3d56" />
  <rect x="579.992" y="512.793" width="4.188" height="2.513" rx=".488" transform="rotate(-180 493.253 371.937)" fill="#3f3d56" />
  <rect x="571.615" y="512.793" width="4.188" height="2.513" rx=".488" transform="rotate(-180 484.876 371.937)" fill="#3f3d56" />
  <rect x="563.238" y="512.793" width="4.188" height="2.513" rx=".488" transform="rotate(-180 476.5 371.937)" fill="#3f3d56" />
  <rect x="554.861" y="512.793" width="4.188" height="2.513" rx=".488" transform="rotate(-180 468.122 371.937)" fill="#3f3d56" />
  <rect x="546.484" y="512.793" width="4.188" height="2.513" rx=".488" transform="rotate(-180 459.745 371.937)" fill="#3f3d56" />
  <rect x="538.107" y="512.793" width="4.188" height="2.513" rx=".488" transform="rotate(-180 451.368 371.937)" fill="#3f3d56" />
  <rect x="529.73" y="512.793" width="4.188" height="2.513" rx=".488" transform="rotate(-180 442.991 371.937)" fill="#3f3d56" />
  <rect x="521.353" y="512.793" width="4.188" height="2.513" rx=".488" transform="rotate(-180 434.614 371.937)" fill="#3f3d56" />
  <rect x="512.976" y="512.793" width="4.188" height="2.513" rx=".488" transform="rotate(-180 426.237 371.937)" fill="#3f3d56" />
  <rect x="638.729" y="516.981" width="4.188" height="2.513" rx=".488" transform="rotate(-180 551.991 376.126)" fill="#3f3d56" />
  <rect x="630.352" y="516.981" width="4.188" height="2.513" rx=".488" transform="rotate(-180 543.614 376.126)" fill="#3f3d56" />
  <rect x="621.975" y="516.981" width="4.188" height="2.513" rx=".488" transform="rotate(-180 535.237 376.126)" fill="#3f3d56" />
  <rect x="613.598" y="516.981" width="4.188" height="2.513" rx=".488" transform="rotate(-180 526.86 376.126)" fill="#3f3d56" />
  <rect x="605.221" y="516.981" width="4.188" height="2.513" rx=".488" transform="rotate(-180 518.483 376.126)" fill="#3f3d56" />
  <rect x="596.845" y="516.981" width="4.188" height="2.513" rx=".488" transform="rotate(-180 510.106 376.126)" fill="#3f3d56" />
  <rect x="588.468" y="516.981" width="4.188" height="2.513" rx=".488" transform="rotate(-180 501.73 376.126)" fill="#3f3d56" />
  <rect x="580.091" y="516.981" width="4.188" height="2.513" rx=".488" transform="rotate(-180 493.352 376.126)" fill="#3f3d56" />
  <rect x="571.714" y="516.981" width="4.188" height="2.513" rx=".488" transform="rotate(-180 484.975 376.126)" fill="#3f3d56" />
  <rect x="563.337" y="516.981" width="4.188" height="2.513" rx=".488" transform="rotate(-180 476.598 376.126)" fill="#3f3d56" />
  <rect x="554.96" y="516.981" width="4.188" height="2.513" rx=".488" transform="rotate(-180 468.221 376.126)" fill="#3f3d56" />
  <rect x="546.583" y="516.981" width="4.188" height="2.513" rx=".488" transform="rotate(-180 459.844 376.126)" fill="#3f3d56" />
  <rect x="538.206" y="516.981" width="4.188" height="2.513" rx=".488" transform="rotate(-180 451.467 376.126)" fill="#3f3d56" />
  <rect x="529.829" y="516.981" width="4.188" height="2.513" rx=".488" transform="rotate(-180 443.09 376.126)" fill="#3f3d56" />
  <rect x="521.452" y="516.981" width="4.188" height="2.513" rx=".488" transform="rotate(-180 434.713 376.126)" fill="#3f3d56" />
  <rect x="513.075" y="516.981" width="4.188" height="2.513" rx=".488" transform="rotate(-180 426.336 376.126)" fill="#3f3d56" />
  <rect x="569.2" y="522.007" width="33.508" height="2.513" rx=".488" transform="rotate(-180 497.122 381.152)" fill="#3f3d56" />
  <circle cx="400.838" cy="182.418" r="30" fill="#fff" />
  <path d="M394.103 194.317a2.32 2.32 0 0 1-1.126-.263 2.289 2.289 0 0 1-1.255-2l-.494-19.152a2.319 2.319 0 0 1 3.51-2.049l18.415 9.107a2.32 2.32 0 0 1 .101 3.914l-17.92 10.044a2.308 2.308 0 0 1-1.231.399Z" fill="#a855f7" />
  <path fill="#ffb8b8" d="m512.525 313.828-9.56-4.263 11.915-39.8 14.109 6.292-16.464 37.771z" />
  <path d="m515.368 307.305-10.343-4.623-1.622-.727-2.391 6.35-17.756 4.407a4.24 4.24 0 0 0-.478 8.082l17.64 6.656 5.408-5.133-1.18 6.727 6.644 2.508 6.592-23.12Z" fill="#2f2e41" />
  <path d="M530.071 171.88a9.948 9.948 0 0 0 14.702-4.067l35.198 3.292-8.642-16.211-32.1-.641a10.002 10.002 0 0 0-9.158 17.626Z" fill="#ffb6b6" />
  <path d="m565.761 170.77 48.708 5.46.168-.215c.32-.41 32.191-41.206 37.546-50.918a29.362 29.362 0 0 0 3.4-19.23l-.036-.162-.127-.108a14.9 14.9 0 0 0-18.632-.408 105.543 105.543 0 0 0-30.457 37.635l-4.029 8.387-36.54 3.604Z" fill="#a855f7" />
  <path d="m674.974 196.15 1.407 3.174c.439 2.922 2.144.015 1.994 2.493 7.247 5.97-12.617 45.87-27.543 44.246-6.92 2.174-15.077 3.061-23.603 3.121q-1.243.01-2.495-.003c-.531-.006-2.166-1.98-2.7-1.992-1.604-.036-2.115 1.867-3.73 1.78-1.277-.066-3.629 1.022-3.834-.243-.442-2.724-1.267-2.106-2.242-.179-.676 1.337-2.98-.273-4.46-.432-8.548-.92-16.82-2.32-23.971-3.757a277.824 277.824 0 0 1-7.47-1.59c-4.362-.983-8.012-1.9-10.654-2.598-2.977-.778-4.672-1.282-4.672-1.282l-21.234 17.276-16.453 35.898c-1.267.115-14.958-3.49-14.958-3.49a9.878 9.878 0 0 1-2.594-10.774c.838-2.508 6.771-21.05 12.979-37.24a855.223 855.223 0 0 1 5.703-14.533 755.567 755.567 0 0 1 4.897-11.867c2.876-6.786 16.777-10.445 33.146-12.365.832-.094 1.67-.19 2.513-.279 8.341-.877 17.191-1.331 25.468-1.54 4.143-.105 8.142-.145 11.861-.15q1.803 0 3.505.01h.005c3.067.015 5.889.06 8.372.11.483.01.952.024 1.41.034h.006c.309.005.613.015.912.02 5.43.14 8.76.31 8.76.31l-.273-9.46 1.829-2.716.25-1.945v-.005l.03-.244.204-.005 3.59-.07 30.174-.588 12.852-.545Z" fill="#2f2e41" />
  <path fill="#ffb8b8" d="m629.09 261.091-3.333 9.922-40.753-8.074 4.92-14.644 39.166 12.796z" />
  <path d="m622.327 258.881-3.618 10.736-.57 1.684 6.55 1.776 6.076 17.256a4.24 4.24 0 0 0 8.09-.293l4.947-18.194-5.623-4.894 6.808.535 1.865-6.853-23.643-4.363ZM602.603 250.337c-.462 1.303.902-.489.409.803-1.899 5.006-5.43 13.536-6.124 14.913-.27-.053-51.516-7.182-58.428-9.193l10.656-27.016 1.196-3.03 17.651 6.294 6.046 5.17 13.201 1.691Z" fill="#2f2e41" />
  <circle cx="635.776" cy="52.618" r="24.244" fill="#ffb6b6" />
  <path d="M543.85 181.621c1.78 1.119-1.705 3.809-3.809 3.809a3.808 3.808 0 0 1-3.808-3.809c0-2.103 2.36-7.101 3.332-5.236.266.509 1.96 3.777 4.285 5.236Z" fill="#a855f7" />
  <path d="M550.038 181.621c1.781 1.119-1.705 3.809-3.808 3.809a3.808 3.808 0 0 1-3.809-3.809c0-2.103 2.36-7.101 3.333-5.236.265.509 1.96 3.777 4.284 5.236Z" fill="#a855f7" />
  <path d="M547.08 180.767c-2.014-.604.63-4.125 2.657-4.686a3.808 3.808 0 0 1 4.685 2.657c.56 2.027-.383 7.473-1.817 5.934-.392-.42-2.895-3.118-5.525-3.905ZM570.984 181.621c1.781 1.119-1.705 3.809-3.808 3.809a3.808 3.808 0 0 1-3.809-3.809c0-2.103 2.36-7.101 3.333-5.236.265.509 1.96 3.777 4.284 5.236Z" fill="#a855f7" />
  <path d="M577.172 181.621c1.782 1.119-1.705 3.809-3.808 3.809a3.808 3.808 0 0 1-3.808-3.809c0-2.103 2.36-7.101 3.332-5.236.266.509 1.96 3.777 4.284 5.236Z" fill="#a855f7" />
  <path d="M574.215 180.767c-2.015-.604.629-4.125 2.656-4.686a3.808 3.808 0 0 1 4.685 2.657c.56 2.027-.382 7.473-1.817 5.934-.391-.42-2.895-3.118-5.524-3.905ZM530.419 180.767c-2.015-.604.629-4.125 2.656-4.686a3.808 3.808 0 0 1 4.685 2.657c.56 2.027-.382 7.473-1.816 5.934-.392-.42-2.896-3.118-5.525-3.905ZM557.501 184.837c-.852 1.923-4.013-1.143-4.314-3.224a3.808 3.808 0 0 1 3.224-4.315c2.081-.3 7.366 1.319 5.66 2.549-.467.335-3.459 2.48-4.57 4.99ZM564.803 178.46c.507-2.042 4.15.432 4.805 2.43a3.808 3.808 0 0 1-2.43 4.806c-2 .656-7.484-.028-6.015-1.534.4-.41 2.978-3.04 3.64-5.703Z" fill="#a855f7" />
  <path d="M561.946 175.603c.508-2.041 4.15.433 4.806 2.431a3.808 3.808 0 0 1-2.431 4.806c-1.999.656-7.483-.028-6.014-1.534.4-.41 2.978-3.04 3.64-5.703ZM544.23 166.61c-.852 1.923-4.013-1.143-4.314-3.224a3.808 3.808 0 0 1 3.224-4.315c2.081-.3 7.366 1.319 5.66 2.549-.467.335-3.458 2.48-4.57 4.99Z" fill="#a855f7" />
  <path d="m525.726 194.695 4.473 14.587a11.003 11.003 0 0 0 10.817 8.994h31.653a10.964 10.964 0 0 0 10.855-9.21l.01-.049 3.964-14.521a10.274 10.274 0 0 0-10.141-11.923h-41.525a10.274 10.274 0 0 0-10.106 12.122Z" fill="#e6e6e6" />
  <path d="M629.347 84.053s17.486-2.261 22.814-.13c1.895.758 3.79 7.72 7.346 9.794l.192.112a20.789 20.789 0 0 1 10.502 18.903 203.044 203.044 0 0 0 3.92 51.153q.378 1.87.796 3.786.492 2.252 1.043 4.575 1.027 4.333 2.267 8.939c.432 1.599-2.109 5.717-1.636 7.372q.475 1.666.98 3.371c1.01 3.414 5.098 4.456 6.288 8.125a6.855 6.855 0 0 1-9.9 6.224l-61.793-4.818 5.88-9.115-3.989-5.485 2.992-1.994 1.495-5.484-4.73-18.474-6.774-15.53a24.134 24.134 0 0 1 9.61-30.287l7.76-20.556Z" fill="#a855f7" />
  <path d="M584.339 210.691a9.948 9.948 0 0 1 14.15-5.698L624.45 181l2.98 18.127-25.11 20.005a10.002 10.002 0 0 1-17.982-8.44Z" fill="#ffb6b6" />
  <path d="m625.485 201.89 37.932-27.994.127.002c-.043-.52-4.386-52.106-7.058-62.87a29.362 29.362 0 0 0-10.574-16.419l-.137-.093-.166.007a14.9 14.9 0 0 0-13.946 12.362 105.543 105.543 0 0 0 3.232 48.308l2.744 8.89-17.099 15.473Z" fill="#a855f7" />
  <path d="M713.583 88.293a21.025 21.025 0 0 1-11.557 8.137 24.175 24.175 0 0 1-5.754.977 21.754 21.754 0 0 0-1.71-6.392 17.96 17.96 0 0 1-.887 6.377 21.374 21.374 0 0 1-8.412-2.253 18.535 18.535 0 0 1-9.917-13.303c-1.027-6.631 1.98-13.143 3.067-19.764 1.092-6.621-.957-15.007-7.44-16.748-4.935-1.326-4.382-.752-8.485 2.294 4.268 6.311-11.497 29.44-17.95 27.422-3.647-1.14-5.982-4.487-6.735-4.487-5.071 8.735 4.477 23.454-5.146 26.51l.793-.793c5.808-7.144-6.332-22.267-.524-29.412 1.62-1.999 3.346-4.367 2.867-6.895-.453-2.403-4.268-3.675-5.385-1.7 2.01-4.602-.957-10.745-5.868-11.926-4.363-1.052-4.283.244-8.66.807a21.725 21.725 0 0 0-1.59-5.49 17.812 17.812 0 0 1-.654 5.595 7.024 7.024 0 0 1-4.248-1.536c-3.57-2.877-2.847-8.92.339-12.215 3.19-3.296 7.933-4.482 12.455-5.25 1.314-9.155 26.572-10.11 29.92-.963 1.426-6.83 9.977-10.375 16.623-8.256s11.258 8.326 13.686 14.868c2.429 6.536 3.107 13.571 4.602 20.382s4.024 13.746 9.23 18.388c5.205 4.637 13.686 6.173 19.17 1.865a15.353 15.353 0 0 1-1.83 13.76Z" fill="#2f2e41" />
  <path d="M200.085 68.562c-.855 1.93-4.028-1.147-4.33-3.236a3.823 3.823 0 0 1 3.235-4.331c2.09-.302 7.395 1.323 5.682 2.558-.468.337-3.471 2.49-4.587 5.009Z" fill="#a855f7" />
  <path d="m201.71 78.3 3.03 29.41 14.212 3.118s-7.755-34.218-8.183-35.24a7.09 7.09 0 1 0-9.059 2.713Z" fill="#ffb6b6" />
  <path d="M166.043 82.916c-6.218 1.836 16.576 47.594 48.39 54.52a16.248 16.248 0 0 0 10.305-21.695l-9.372-21.92-13.427 7.047.788 10.473-10.536-11.75-21.702-9.881Z" fill="#3f3d56" />
</svg>